# xmcd
# 
# Track frame offsets:
#     150
#     48275
#     96872
#     138337
#     187325
# 
# Disc length: 3086
# 
# Revision: 12
# Processed by: cddbd v1.5.2PL0 Copyright (c) Steve Scherf et al.
# Submitted via: fre:ac v1.0.17
# 
DISCID=430c0c05
DTITLE=Arvo Pärt - Alina
DYEAR=1999
DGENRE=Classical
TTITLE0=Spiegel Im Spiegel
TTITLE1=Für Alina
TTITLE2=Spiegel Im Spiegel II
TTITLE3=Für Alina II
TTITLE4=Spiegel Im Spiegel III
EXTD=sehr ruhige Musik YEAR: 1999
EXTT0=Vladimir Spivakov, violin Sergej Bezrodny, Piano
EXTT1=Alexander Malter, Piano
EXTT2=Dietmar Schwalke, Violoncello, Alexander Malter, Piano
EXTT3=Alexander Malter, Piano
EXTT4=Vladimir Spivakov, violin Sergej Bezrodny, Piano
PLAYORDER=
